<?xml version="1.0" encoding="UTF-8"?>
<!DOCTYPE svg PUBLIC "-//W3C//DTD SVG 1.1//EN" "http://www.w3.org/Graphics/SVG/1.1/DTD/svg11.dtd">
<!-- Creator: CorelDRAW 2017 -->
<svg xmlns="http://www.w3.org/2000/svg" xml:space="preserve" width="39.0336mm" height="39.5417mm" version="1.1" style="shape-rendering:geometricPrecision; text-rendering:geometricPrecision; image-rendering:optimizeQuality; fill-rule:evenodd; clip-rule:evenodd"
viewBox="0 0 88448.97 89600.31"
 xmlns:xlink="http://www.w3.org/1999/xlink">
 <g id="Layer_x0020_1">
  <metadata id="CorelCorpID_0Corel-Layer"/>
  <path class="fil0" d="M84801.44 75689.52l-7054.42 0 0 -28156.26c0,-2014.9 -1632.63,-3647.31 -3647.53,-3647.31l-9594.34 0c-633.57,-1596.6 -1384.73,-3133.16 -2246.26,-4598.79l0 -23598.72c0,-2014.9 -1632.63,-3647.76 -3647.76,-3647.76l-36500.93 0.45 0 -8393.61c0,-2014.67 -1633.08,-3647.53 -3647.76,-3647.53l-10701.5 0c-2014.45,0 -3647.53,1632.86 -3647.53,3647.53 0,2015.13 1633.08,3647.76 3647.53,3647.76l7054.42 0 0 21125.64c-8929.05,6007.09 -14815.37,16204.63 -14815.37,27752.01 0,18431.85 14995.51,33427.36 33427.82,33427.36 18431.63,0 33427.14,-14995.51 33427.14,-33427.36 0,-1696.53 -129.39,-3362.7 -374.56,-4992.16l3970.89 0 0 28156.26c0,2014.9 1633.08,3647.76 3647.76,3647.76l10701.95 0c2014.9,0 3647.76,-1632.86 3647.76,-3647.76 0.23,-2015.13 -1632.86,-3647.53 -3647.31,-3647.53zm-51373.85 -28496.39c4959.3,0 8979.81,4020.51 8979.81,8979.81 0,4959.3 -4020.51,8979.81 -8979.81,8979.81 -4959.3,0 -8979.81,-4020.51 -8979.81,-8979.81 0,-4959.3 4020.51,-8979.81 8979.81,-8979.81zm-11317.39 -27857.16l32853.62 0 0 11299.03c-5821.96,-4917.15 -13336.59,-7889.88 -21536.01,-7889.88 -3970.89,0 -7781.11,699.28 -11317.16,1975.7l0 -5384.85 -0.45 0zm11317.61 62969.04c-14409.98,0 -26132.53,-11723.45 -26132.53,-26132.07 0,-14409.08 11723.45,-26132.3 26132.53,-26132.3 14409.53,0 26131.85,11723 26131.85,26132.3 0,14409.53 -11722.32,26132.07 -26131.85,26132.07z"/>
 </g>
</svg>
