<?xml version="1.0" encoding="UTF-8"?>
<!DOCTYPE svg PUBLIC "-//W3C//DTD SVG 1.1//EN" "http://www.w3.org/Graphics/SVG/1.1/DTD/svg11.dtd">
<!-- Creator: CorelDRAW 2017 -->
<svg xmlns="http://www.w3.org/2000/svg" xml:space="preserve" width="35.9758mm" height="35.9762mm" version="1.1" style="shape-rendering:geometricPrecision; text-rendering:geometricPrecision; image-rendering:optimizeQuality; fill-rule:evenodd; clip-rule:evenodd"
viewBox="0 0 704.26 704.27"
 xmlns:xlink="http://www.w3.org/1999/xlink">
 <g id="Layer_x0020_1">
  <metadata id="CorelCorpID_0Corel-Layer"/>
  <path class="fil0" d="M702.04 313.04c-1.11,-9.9 -12.66,-17.35 -22.64,-17.35 -32.27,0 -60.9,-18.94 -72.91,-48.25 -12.26,-30.02 -4.35,-65.02 19.69,-87.07 7.57,-6.92 8.49,-18.51 2.15,-26.56 -16.52,-20.97 -35.29,-39.92 -55.79,-56.34 -8.02,-6.43 -19.8,-5.54 -26.76,2.17 -20.99,23.25 -58.69,31.88 -87.83,19.73 -30.31,-12.75 -49.44,-43.48 -47.56,-76.45 0.62,-10.36 -6.96,-19.37 -17.29,-20.57 -26.31,-3.05 -52.84,-3.13 -79.22,-0.21 -10.2,1.13 -17.77,9.92 -17.43,20.15 1.14,32.65 -18.21,62.83 -48.22,75.13 -28.79,11.76 -66.23,3.18 -87.17,-19.86 -6.92,-7.59 -18.5,-8.52 -26.57,-2.23 -21.1,16.56 -40.29,35.52 -56.96,56.32 -6.5,8.08 -5.54,19.8 2.1,26.75 24.51,22.2 32.42,57.5 19.69,87.87 -12.15,28.95 -42.21,47.6 -76.62,47.6 -11.17,-0.36 -19.11,7.14 -20.35,17.3 -3.09,26.45 -3.13,53.41 -0.15,80.07 1.11,9.94 13,17.32 23.09,17.32 30.67,-0.78 60.1,18.2 72.46,48.25 12.3,30.02 4.38,65 -19.7,87.08 -7.53,6.92 -8.49,18.49 -2.13,26.53 16.35,20.84 35.14,39.8 55.7,56.36 8.07,6.5 19.81,5.59 26.81,-2.12 21.07,-23.3 58.77,-31.92 87.78,-19.74 30.4,12.72 49.52,43.44 47.65,76.42 -0.61,10.36 6.98,19.4 17.28,20.57 13.46,1.58 26.99,2.35 40.57,2.35 12.88,0 25.77,-0.7 38.65,-2.14 10.21,-1.13 17.77,-9.93 17.42,-20.17 -1.18,-32.64 18.21,-62.82 48.19,-75.09 28.98,-11.84 66.25,-3.17 87.21,19.83 6.96,7.57 18.47,8.49 26.57,2.22 21.06,-16.52 40.22,-35.47 56.96,-56.32 6.5,-8.07 5.58,-19.81 -2.1,-26.77 -24.51,-22.19 -32.45,-57.5 -19.73,-87.84 11.96,-28.56 40.9,-47.74 72.03,-47.74l4.36 0.12c10.11,0.82 19.39,-6.96 20.61,-17.27 3.11,-26.47 3.14,-53.4 0.15,-80.07zm-349.92 242.1c-112.12,0 -203.01,-90.89 -203.01,-203.01 0,-112.12 90.89,-203 203.01,-203 112.12,0 203.01,90.89 203.01,203 0,38.06 -10.49,73.65 -28.71,104.09l-88.89 -88.89c6.43,-15.17 9.83,-31.62 9.83,-48.6 0,-33.24 -12.95,-64.49 -36.46,-88 -23.5,-23.5 -54.76,-36.45 -87.99,-36.45 -11.09,0 -22.13,1.47 -32.82,4.38 -4.68,1.27 -8.5,5.13 -9.75,9.82 -1.27,4.79 0.16,9.71 3.91,13.45 0,0 43.89,44.22 58.57,58.9 1.54,1.54 1.53,5.21 1.32,6.53l-0.14 0.97c-1.48,16.14 -4.33,35.52 -6.69,42.97 -0.32,0.31 -0.61,0.58 -0.94,0.9 -0.34,0.34 -0.65,0.67 -0.97,1 -7.54,2.42 -27.22,5.31 -43.62,6.78l0 -0.09 -0.74 0.19c-0.13,0.02 -0.37,0.03 -0.7,0.03 -1.77,0 -4.38,-0.5 -6.75,-2.86 -15.28,-15.28 -57.45,-57.15 -57.45,-57.15 -3.78,-3.77 -7.66,-4.56 -10.25,-4.56 -6.03,0 -11.42,4.36 -13.12,10.6 -11.61,42.95 0.7,89.16 32.12,120.58 23.51,23.51 54.77,36.45 88.01,36.45 16.98,0 33.43,-3.4 48.6,-9.83l89.86 89.86c-31.55,20.19 -69.01,31.94 -109.24,31.94z"/>
 </g>
</svg>
