<?xml version="1.0" encoding="UTF-8"?>
<!DOCTYPE svg PUBLIC "-//W3C//DTD SVG 1.1//EN" "http://www.w3.org/Graphics/SVG/1.1/DTD/svg11.dtd">
<!-- Creator: CorelDRAW 2017 -->
<svg xmlns="http://www.w3.org/2000/svg" xml:space="preserve" width="35.4488mm" height="35.2443mm" version="1.1" style="shape-rendering:geometricPrecision; text-rendering:geometricPrecision; image-rendering:optimizeQuality; fill-rule:evenodd; clip-rule:evenodd"
viewBox="0 0 690.9 686.91"
 xmlns:xlink="http://www.w3.org/1999/xlink">
 <g id="Layer_x0020_1">
  <metadata id="CorelCorpID_0Corel-Layer"/>
  <path class="fil0" d="M69.42 314.86c9.05,72.08 -10.72,310.7 8.71,355.19 25.14,20.55 161.67,23.39 185.81,2.56 35.82,-40.6 -31.88,-200.63 81.38,-200.63 113.26,0 45.56,160.03 81.38,200.63 23.96,20.68 161.47,18.16 185.73,-2.68 20.67,-45.12 -0.93,-282.69 8.89,-355 60.04,-8.19 103.31,-23.28 34.1,-77.53 -50.44,-39.53 -287.66,-237.51 -310.1,-237.39 -22.96,0.12 -255.83,194.52 -306.25,234.36 -69.04,54.54 -38.78,71.45 30.36,80.5z"/>
 </g>
</svg>
