<?xml version="1.0" encoding="UTF-8"?>
<!DOCTYPE svg PUBLIC "-//W3C//DTD SVG 1.1//EN" "http://www.w3.org/Graphics/SVG/1.1/DTD/svg11.dtd">
<!-- Creator: CorelDRAW 2017 -->
<svg xmlns="http://www.w3.org/2000/svg" xml:space="preserve" width="38.6029mm" height="41.6563mm" version="1.1" style="shape-rendering:geometricPrecision; text-rendering:geometricPrecision; image-rendering:optimizeQuality; fill-rule:evenodd; clip-rule:evenodd"
viewBox="0 0 32063.51 34599.66"
 xmlns:xlink="http://www.w3.org/1999/xlink">
 <g id="Layer_x0020_1">
  <metadata id="CorelCorpID_0Corel-Layer"/>
  <path class="fil0" d="M5119.23 2615.39l24324.66 -0.08 362.97 29403.44 -24684.31 0 4.57 -2862.91c928.36,-98.43 2714.23,196.85 2675.69,-1288.59 -37.96,-1463.51 -1638.11,-1223.39 -2638.98,-1334.85l-39.7 -4455.08 1820.09 -40.03c695.38,-474.44 1183.52,-1068.57 618.55,-1883.3 -528.76,-762.32 -1604.72,-611.24 -2398.93,-700.19l-39.7 -4455 2076.66 -82.06c965.65,-904.69 715.56,-1654.47 -256.57,-2325.43l-1780.47 1.66 -39.62 -4491.3c838.49,-88.96 1994.02,127.75 2476.18,-662.57 511.23,-837.91 41.2,-1445.16 -656.09,-1926.41l-1780.55 -2.49 -44.44 -2894.8zm11781.38 5283.19c-310.73,93.86 -272.93,-52 -836,210.47 -711.24,331.41 -1411.77,962.66 -1837.7,1614.1 -2534.24,3876.24 1249.14,8206.98 5087.5,7084.09 2406.83,-704.1 3995.26,-3192.49 3265.42,-5694.17 -318.62,-1092.07 -902.45,-2023.09 -1877.32,-2660.41 -985.34,-644.21 -1589.18,-793.55 -2698.61,-775.53 -1184.43,19.27 -962.5,178.83 -1103.28,221.44zm5674.82 9766.68c-738.15,192.53 -1274.39,713.24 -1970.18,977.28 -3810.79,1445.91 -5785.04,-629.51 -6972.79,-976.37 -2321.36,1902.24 -2315.54,3520.16 -2556.91,6886.41 -129.32,1803.48 632.25,1800.41 2341.29,2075.92 2544.29,409.98 6331.57,416.21 8898.12,76.33 3413.68,-452.09 2853.52,-1049.13 2576.68,-4109.47 -50.42,-556.75 -177.17,-1546.08 -300.51,-2059.14 -274.26,-1141.41 -1081.19,-2120.6 -2015.7,-2870.96zm-20101.23 -12253.24c-966.98,365.3 -1102.2,-224.18 -2147.35,376.1 -435.73,726.69 -435.73,1095.31 0,1822 1045.14,600.36 1180.36,10.88 2147.35,376.1 225.34,640.06 225.34,3864.36 0,4504.42 -966.98,365.3 -1102.2,-224.26 -2147.35,376.1 -435.73,726.69 -435.73,1095.31 0,1822 1045.14,600.27 1180.36,10.8 2147.35,376.1 220.52,626.35 223.1,3702.89 4.32,4327.25 -835,270.94 -2402.01,-161.39 -2448.11,1372.31 -50,1668.17 1499.81,1050.71 2445.7,1377.13 196.1,559.74 196.1,3766.93 0,4326.67 -945.89,326.43 -2495.7,-291.04 -2445.7,1377.13 46.1,1533.7 1613.11,1101.37 2448.11,1372.4 356.99,1018.48 -88.04,2992.48 162.05,4193.94 309.9,1489.1 2013.95,1150.79 3208.85,1147.22 1980.23,-5.9 24330.97,133.73 25154.51,-72.59 609.66,-152.83 555.42,-162.55 779.77,-490.8 475.02,-758.59 201.25,-14493.11 201.25,-16497.02l-40.53 -16839.22c-507.33,-966.57 -6408.4,-584.91 -8127.07,-584.91l-17787.27 0c-1189.42,1.16 -2981.93,-413.56 -3374.39,977.78 -315.63,1118.82 186.14,3315.67 -181.49,4359.9z"/>
 </g>
</svg>
